<svg xmlns="http://www.w3.org/2000/svg" width="1600.003" height="1600.003" fill-rule="evenodd" clip-rule="evenodd" image-rendering="optimizeQuality" shape-rendering="geometricPrecision" text-rendering="geometricPrecision" viewBox="0 0 16666.66 16666.66" id="international-crowdfunding"><rect width="16666.66" height="16666.66" fill="none"></rect><path fill="#268ccb" fill-rule="nonzero" d="M11701.48 8579.5l-0.19 -3.25 0.19 -3.33c0,-89.02 -4.41,-177.1 -10.77,-264.57 -0.7,-9.03 -1.28,-18.02 -2.06,-27.05 -148.61,-1842.97 -1690.19,-3292.58 -3571.48,-3292.58 -1881.17,0 -3422.75,1449.5 -3571.45,3292.39 -0.69,9.11 -1.36,18.33 -2.06,27.43 -6.36,87.39 -10.77,175.35 -10.77,264.37l0.19 3.25 -0.19 3.33c0,89.13 4.41,177.3 10.77,264.76 0.7,8.91 1.28,17.83 2.06,26.74 148.5,1843.08 1690.16,3292.77 3571.45,3292.77 1881.2,0 3422.87,-1449.59 3571.48,-3292.58 0.78,-9 1.36,-18.02 2.06,-27.13 6.36,-87.47 10.77,-175.44 10.77,-264.57z"></path><path fill="#ffce72" fill-rule="nonzero" d="M5010.06 7404.87c227.64 6.36 98.24 115.88 107.27 296.23 11.55 230.69 198.15 192.09 323.05 343.43 39.99 48.4 40.96 108.35 76.7 159.5 52.04 74.53 132.76 102.16 208.06 147.22 126.87 75.81 225.5 236.17 359.23 285.15 340.68 125.09-18.13-410.13 0-518.87 12.25-73.86 67.89-74.75 38.02-146.56-27.55-66.11-93.85-81-149.11-77.28-39.57 2.72-88.16 87.28-137.34 50.93-65.72-48.67 41.46-110.6 51.54-145.36 38.4-132.54-154.2-225.31-224.61-113.93-30.77 48.59 19.96 181.43-71.31 151.83-60.95-19.77-108.27-227.75-102.38-283.59 25.19-235.89 197.87-280.06 406.83-281.81 145.67-1.28 220.39 23.52 251.66 180.94 29.88 150.83-37.13 200.51 95.22 284.95 147.53 93.94 247.44 28.1 174.27-150.28-36.74-89.52-148.81-208.45-106.3-315.91 16.08-40.85 79.83-69.53 106.3-103.24 49.57-63.09 1.36-55.45 77.2-105.02 72.47-47.31 145.06-33.79 174.35-147.14 25.19-97.66-12.24-101.57 61.43-174.85 147.81-147.22 259.68 35.76 395.66-36.82-28.6-46.82-56.54-99.83-71.34-153.89 32.55-40.18 367.17-14.02 173.11-174.46 120.2-71.5 97.85 132.23 197.59 111.57 134.48-27.91-92.97-149.78-97.77-172.41-19.8-94.33 129.51-95.22 183.85-59.06 78.39 51.93 47.04 206.01 171.94 183.38 14.11 110.1 151.72 71.89 151.83-14.11.19-80.41-95.99-62.78-97.27-159.47-1.39-103.55 80.8-98.35 21.35-193.87-39.48-63.37-128.62-25.46-112.76-135.56-49.07-3.72-93.16 81.78-109.91 34.96-43.29-121.37-96.3-373.11-260.46-195.04-67.78-54.17-95.33-149.78-186.13-148.39-119.82 1.75-105.1 140.48-173.69 221.39-30.96 36.52-84.52 57.98-115.29 96.85-34.1 43.12 10.19 96.99-70.72 111.68-134.98 24.49-94.24-155.44-76.42-219.33-201.79-22.22-131.15-194.35 26.74-198.54 59.28-1.67 146.25 43.98 211.2-2.25 58.98-41.93 38.9-130.98 121.95-130.59 19.3 216.39 173.3 28.02 272.82 11.94-8.61 24.69.39 69.86-8.52 94.74 321.02 49.26 3.33-393.61 221.31-474.13 142.03-52.51 167.41 73.97 161.91 184.57-6.17 126.15.39 180.71 76.42 266.82 80.61 91.5 158.5 191.24 236.17 24.6 14.41-31.07 5.89-124.31 23.6-144.78 31.07-35.65 127.45-27.63 171.82-60.45 153.2-113.15 60.34-306.31-75.03-421.21-434.54 2.72-850.77 82.86-1235.55 227.25-20.96 24.88-37.91 50.65-43.79 78.08-41.62 7.83-85.41 6.86-118.82-12.44-706.68 305.61-1294.81 832.14-1678.72 1492.48.19 20.57 1.28 39.68 3.64 56.31l10 28.02c15.66 43.2 52.48 149.7 49.26 225.7-5 113.85-89.63 212.28-70.03 320.13zM11701.48 8572.92c0-89.02-4.41-177.1-10.77-264.57-.7-9.03-1.28-18.02-2.06-27.05-32.54-402.99-131.68-787.3-286.34-1141.7l-.39-.69c-21.27-48.79-43.79-96.96-67.2-144.67l-5.89-11.78c-21.74-43.79-44.37-87.08-67.78-129.98l-10.58-19.1c-22.35-40.15-45.46-79.75-69.26-118.93l-14.6-23.88c-23.13-37.35-47.01-74.17-71.42-110.71l-17.63-26.35c-24.3-35.46-49.26-70.42-74.72-105.02-6.58-8.8-12.94-17.83-19.6-26.63-25.85-34.49-52.51-68.28-79.64-101.8l-19.8-24.69-14.89-17.41c-90.72-3.75-163 40.65-206.2 144.37-28.41 68-20.19 287.92-114.52 306.91-101.1 20.38-184.07-540.63-385.17-230.3-26.54 41.04-12.05 96.1-33.52 135.2-30.07 55.04-53.67 53.76-94.8 75.5 62.67-122.43-108.85-404.94 67.47-396.63 40.18-86.39-22.82-177.68 2.25-267.9 48.7-175.55 86.11-18.22 124.7 60.64 22.55 45.93 116.68 221.78 198.68 160.94 59.84-44.37-14.41-233.72-11.39-293.39 73.08 12.63 93.27 114.82 171.13 133.04 57 13.41 100.41 15.19 136.37 8.8l-9.22-9.77c-58.37-61.43-118.51-121.09-181.02-178.18l-.89-.89c-64.84-59.17-132.04-115.98-201.09-170.46l-4.41-3.53c-67.31-52.9-136.65-103.05-207.67-151.03l-18.22-12.25c-143.31-95.52-293.87-181.04-450.7-255.49l-14.22-6.86c-77.39-36.24-156.25-69.72-236.47-100.6l-21.16-7.83c-162.3-61.12-330.21-110.8-502.7-147.92l-13.05-2.94c5.78 23.52 7.86 52.12.69 95.13-12.55 74.72-50.45 61.31.11 134.87 40.24 58.7 148.98 70.94 198.93 122.07 32.35 33.1 40.26 72.78 73.67 107.38 42.23 43.87 106.49 56.12 139.78 113.13 14.52 24.99 34.99 46.73 45.57 72.11-76.03 15.35-192.01-103.74-235.58-35.26-47.51 74.72 82.86 155.17 100.69 208.73 22.05 66.03-42.51 176.13 73.86 184.66 108.15 7.94 69.75-116.46 63.87-182.68 122.26-15 136.64 87.19 187.4 154.19 67.89 89.61 163.3 68.67 232.56 137.42 142.81 141.95-23.52 104.52-86.22 107.96-58.87 3.22-86.97-15.3-134.29 40.46-60.73 71.39-23.41 32.32 6.86 100.6 25.85 58.48 88.05 242.33 126.57 276.93 28.02 24.96 241.05 59.34 308.06 53.76-57.98 51.93-86.97 110.71-146.53 182.02-116.76 139.98-57.31 99.24-36.63 257.32 17.83 136.48-92.3 179.18-128.04 294.37-41.15 132.76 60.92 288.31 77.19 407.63 15.16 111.76 70.72 127.62 115.87 214.61 34.96 67.39 31.35 137.54 80.81 212.56 70.92 107.57 249.8 299.75 399.38 281.84 104.71-12.64 62.31-103.07 126.26-148.42 67.2-47.7 167.13 28.8 160.97-107.65 39.65 1.36 139.87 73.75 172.1 61.03 59.56-23.8 35.65-132.15 38.79-183.68 157.61-26.63 129.98 189.07 94.33 267.93-17.44 38.49-68.86 95.11-71.31 135.67-4.5 73.67 42.82 53.09 75.33 122.04 57.51 122.15-3.92 523.5-72 631.44-63.67 100.8-224.33 141.45-200.31 291.03 14.77 92.77 129.59 132.15 151.64 227.47 26.93 116.46-34.8 230.7 17.71 350.4 58.87 134.01 105.21 258.52 157.14 402.88 6.67 18.33 14.3 32.74 21.55 48.59 223.03-301.7 400.05-639.46 520.15-1003.19-.67-14.11-1.94-28.1-1.56-42.2l.08-4.92c4.61-125.68 52.81-173.18 91.61-282.98l4.5-14.61c35.37-159.28 60.53-322.38 73.97-488.82.78-9 1.36-18.02 2.06-27.13 6.36-86.97 10.66-174.46 10.66-263.1l0-2.06-.08-2.67.19-3.33z"></path><path fill="#ffce72" fill-rule="nonzero" d="M8777.02 9334.75c-58.87,-24.49 -141.06,22.05 -198.46,-10.89 -89.13,-50.93 -40.54,-92.07 -148.61,-113.93 -67.67,-13.8 -130.26,19.3 -196.01,9.52 -68.75,-10.3 -140.25,-101.1 -226.08,-95.41 -132.81,-107.46 -136.54,-241.97 -226.47,-380.58 -97.08,-149.67 -156.72,-101.3 -293.98,-97.85 -135.48,3.42 -226.67,-129.12 -360.98,-159.78 -50.54,-11.55 -91.69,-5.97 -139.28,-3.33 -63.2,3.44 -77.97,10.5 -158.5,-5.47 -41.04,-8.24 -107.85,-1.19 -145.48,-12.63 -3.8,-1.19 -42.9,4.11 -56.04,0.86 -23.49,-5.78 -7.44,-62.89 -45.65,-66.11 -47.7,-4.03 -295.53,125.79 -314.05,160.66 -44.07,83.25 42.43,117.74 51.04,183.96 10,76.5 -19.77,85.03 -59.45,138.31 -139.01,186.91 -288.67,479.3 -340.91,704.52 -29.38,126.56 8.14,158.11 59.48,262.24 60.34,122.23 51.43,255.57 108.43,377.92 66.89,143.89 156.25,123.04 276.54,203.76 107.66,72.28 115.29,165.94 130.68,285.73 11.94,92.58 25.35,181.44 26.63,276.04 0.7,49.68 -37.51,69.17 -17.24,118.93 28.13,68.87 125.59,101.69 176.55,152.03 50.15,49.76 87.17,111.49 140.17,161.44 130.48,123.04 279.37,229.81 335.8,408.88 24.3,77.19 11.94,136.45 -0.39,198.56 114.32,31.82 230.97,57.98 349.62,78.44 17.91,3.06 29.85,-220.98 37.71,-243.72 30.74,-90.02 81.5,-105.41 146.92,-174.27 71.03,-74.72 62.31,-127.54 88.78,-227.36 65.92,-248.99 190.82,-270.54 398.07,-377.33 170.27,-87.75 309.08,-180.05 259.21,-371.26 -55.93,-214.92 46.62,-319.33 180.16,-481.35 138.5,-168 227.56,-377.92 257.63,-594.51 19.5,-140.28 1.94,-265.29 -95.82,-306.03z"></path><polygon fill="#2c2a43" fill-rule="nonzero" points="8117.18 4241.22 9341.87 5414.07 8547.8 4241.22"></polygon><polygon fill="#2c2a43" fill-rule="nonzero" points="12930.56 8142.99 11539.93 8655.22 12930.56 8625.73"></polygon><polygon fill="#2c2a43" fill-rule="nonzero" points="5522.87 8023.37 3656.75 9626.29 3656.75 9076.04"></polygon><polygon fill="#2c2a43" fill-rule="nonzero" points="7747.9 10954.11 9332.95 12425.43 9939.9 12425.43"></polygon><path fill="#f1666e" fill-rule="nonzero" d="M9907.08 5719.13c0 168.46-136.56 305.03-305.06 305.03-168.47 0-305.03-136.56-305.03-305.03 0-168.5 136.56-305.06 305.03-305.06 168.49 0 305.06 136.56 305.06 305.06zM6132.96 7837.94c0 168.49-136.56 305.06-305.06 305.06-168.38 0-305.03-136.56-305.03-305.06 0-168.47 136.65-305.03 305.03-305.03 168.49 0 305.06 136.56 305.06 305.03zM7819.68 10559.92c0 168.5-136.54 305.03-305.03 305.03-168.5 0-305.06-136.53-305.06-305.03 0-168.49 136.56-305.06 305.06-305.06 168.49 0 305.03 136.56 305.03 305.06zM11498.11 8794.9c0 168.5-136.65 305.06-305.03 305.06-168.5 0-305.06-136.56-305.06-305.06 0-168.5 136.56-305.03 305.06-305.03 168.38 0 305.03 136.53 305.03 305.03z"></path><polygon fill="#268ccb" fill-rule="nonzero" points="7049.65 4241.22 9400.24 4241.22 9400.24 2931.34 7049.65 2931.34"></polygon><path fill="#fefefe" fill-rule="nonzero" d="M7596.53 3813.16l0 104.91 -91.11 0 0 -105.6c-64.45,-8.91 -126.84,-35.57 -172.69,-73.28l48.59 -98.16c49.37,42.51 124.09,72.78 174.05,72.78 37.15,0 60.45,-13.8 60.45,-39.18 0,-81.5 -253.02,-32.21 -253.02,-202.18 0,-76.22 54.84,-128.93 142.61,-143.31l0 -100.8 91.11 0 0 100.1c56.23,6.16 109.71,25.38 150.17,51.43l-47.31 99.43c-50.65,-28.79 -115.09,-51.43 -154.86,-51.43 -30.19,0 -50.07,10.86 -50.07,32.82 0,79.53 252.94,34.38 252.94,207.17 0,84.33 -64.37,133.62 -150.86,145.28z"></path><polygon fill="#fefefe" fill-rule="nonzero" points="8045.29 3331.19 8045.29 3811.77 7919.89 3811.77 7919.89 3433.96 7827.34 3433.96 7827.34 3331.19"></polygon><path fill="#fefefe" fill-rule="nonzero" d="M8330.16 3571.08c0 109.74 19.88 155.78 68.56 155.78 48.01 0 67.89-46.04 67.89-155.78 0-110.38-19.88-155.64-67.89-155.64-48.68 0-68.56 45.26-68.56 155.64zm256.43 0c0 157.02-67.2 244.02-187.87 244.02-122.04 0-188.46-87-188.46-244.02 0-157.03 66.42-243.33 188.46-243.33 120.68 0 187.87 86.3 187.87 243.33zM8752.83 3571.08c0 109.74 19.88 155.78 68.56 155.78 48.01 0 67.89-46.04 67.89-155.78 0-110.38-19.88-155.64-67.89-155.64-48.68 0-68.56 45.26-68.56 155.64zm256.35 0c0 157.02-67.09 244.02-187.8 244.02-122.04 0-188.46-87-188.46-244.02 0-157.03 66.42-243.33 188.46-243.33 120.71 0 187.8 86.3 187.8 243.33z"></path><polygon fill="#f1666e" fill-rule="nonzero" points="12896.16 8962.42 15246.78 8962.42 15246.78 7652.53 12896.16 7652.53"></polygon><path fill="#fefefe" fill-rule="nonzero" d="M13622.53 8577.64l0 104.8-91.11 0 0-105.49c-64.45-9.02-126.84-35.65-172.8-73.36l48.68-98.16c49.37 42.51 124.12 72.78 174.08 72.78 37.12 0 60.45-13.72 60.45-39.1 0-81.58-253.02-32.32-253.02-202.26 0-76.22 54.84-128.84 142.61-143.33l0-100.8 91.11 0 0 100.13c56.23 6.17 109.71 25.35 150.17 51.43l-47.32 99.41c-50.65-28.8-115.09-51.51-154.86-51.51-30.19 0-50.07 10.97-50.07 33.02 0 79.44 252.94 34.26 252.94 207.06 0 84.36-64.37 133.73-150.86 145.39zM14002.03 8269.06c113.13 0 186.49 59.56 186.49 145.36 0 101.49-77.39 167.22-196.09 167.22-64.37 0-138.42-23.88-190.54-60.23l50.07-97.46c37.71 39.85 81.5 60.42 125.4 60.42 48.76 0 76.2-22.05 76.2-61.11 0-36.35-27.44-56.93-75.42-56.93-25.38 0-104.24.69-134.4 2.86l0-274.29 322.85 0 0 101.57-207.67 0 0 73.28c10.3-.69 33.52-.69 43.12-.69zM14356.13 8335.48c0 109.71 19.91 155.75 68.59 155.75 48.01 0 67.89-46.04 67.89-155.75 0-110.29-19.88-155.67-67.89-155.67-48.68 0-68.59 45.37-68.59 155.67zm256.46 0c0 157.03-67.2 244.11-187.87 244.11-122.07 0-188.49-87.08-188.49-244.11 0-157.02 66.42-243.33 188.49-243.33 120.68 0 187.87 86.3 187.87 243.33z"></path><polygon fill="#b0ddd3" fill-rule="nonzero" points="8764.58 13735.32 11115.19 13735.32 11115.19 12425.43 8764.58 12425.43"></polygon><path fill="#fefefe" fill-rule="nonzero" d="M9347.45 13310.19l0 104.8-91.22 0 0-105.49c-64.45-9.02-126.84-35.65-172.69-73.36l48.59-98.07c49.37 42.43 124.09 72.7 174.16 72.7 37.01 0 60.34-13.72 60.34-39.1 0-81.58-253.02-32.21-253.02-202.26 0-76.14 54.84-128.84 142.61-143.22l0-100.8 91.22 0 0 100.02c56.23 6.17 109.71 25.35 150.06 51.51l-47.31 99.32c-50.65-28.69-115.09-51.43-154.86-51.43-30.19 0-50.07 10.97-50.07 32.93 0 79.53 252.94 34.37 252.94 207.06 0 84.36-64.37 133.73-150.75 145.39zM9767.3 12967.32c0-25.93-19.8-41.12-54.76-41.12-39.1 0-88.47 23.3-133.04 61.03l-47.2-92.58c61.61-45.26 128.81-72.58 198.73-72.58 97.38 0 167.91 50.73 167.91 126.76 0 52.09-39.76 106.18-93.16 160.44l-98.74 98.74 205.62 0 0 100.8-366.06 0-.69-83.06 174.85-179.57c26.74-27.41 46.54-58.29 46.54-78.86zM10080.96 13068.03c0 109.82 19.96 155.75 68.56 155.75 48.01 0 67.89-45.93 67.89-155.75 0-110.29-19.88-155.56-67.89-155.56-48.59 0-68.56 45.26-68.56 155.56zm256.43 0c0 157.03-67.2 244.11-187.87 244.11-122.07 0-188.46-87.08-188.46-244.11 0-156.94 66.39-243.33 188.46-243.33 120.68 0 187.87 86.39 187.87 243.33zM10503.64 13068.03c0 109.82 19.88 155.75 68.56 155.75 48.01 0 67.89-45.93 67.89-155.75 0-110.29-19.88-155.56-67.89-155.56-48.68 0-68.56 45.26-68.56 155.56zm256.35 0c0 157.03-67.09 244.11-187.8 244.11-122.04 0-188.46-87.08-188.46-244.11 0-156.94 66.42-243.33 188.46-243.33 120.71 0 187.8 86.39 187.8 243.33z"></path><polygon fill="#3fc0c6" fill-rule="nonzero" points="1419.89 10048.47 3770.37 10048.47 3770.37 8738.64 1419.89 8738.64"></polygon><path fill="#fefefe" fill-rule="nonzero" d="M2002.74 9623.34l0 104.91-91.19 0 0-105.6c-64.48-8.91-126.87-35.57-172.71-73.28l48.59-98.16c49.37 42.52 124.12 72.81 174.16 72.81 37.04 0 60.34-13.83 60.34-39.2 0-81.5-252.91-32.21-252.91-202.26 0-76.14 54.76-128.81 142.53-143.23l0-100.8 91.19 0 0 100.1c56.23 6.08 109.71 25.38 150.06 51.43l-47.2 99.33c-50.73-28.69-115.21-51.43-154.97-51.43-30.07 0-50.07 11-50.07 32.93 0 79.53 253.05 34.38 253.05 207.06 0 84.44-64.48 133.73-150.86 145.39zM2561.87 9470.43c0 92.47-76.11 157.03-195.4 157.03-69.95 0-142.65-23.33-189.27-58.87l50.84-96.8c37.6 39.09 82.86 59.56 128.81 59.56 52.79 0 82.28-21.85 82.28-59.56 0-38.41-29.49-58.29-82.97-58.29l-80.91 0 0-67.2 112.46-107.65-185.13 0-.69-96.49 335.99 0 0 72.58-129.59 120.7 23.99 3.31c76.11 11.66 129.59 58.39 129.59 131.67zM2804.81 9314.76c113.15 0 186.52 59.67 186.52 145.36 0 101.6-77.39 167.33-196.09 167.33-64.37 0-138.42-23.99-190.54-60.34l50.07-97.38c37.71 39.76 81.58 60.34 125.37 60.34 48.79 0 76.22-21.94 76.22-61.04 0-36.32-27.43-57-75.42-57-25.38 0-104.24.78-134.42 2.86l0-274.2 322.88 0 0 101.49-207.67 0 0 73.36c10.3-.78 33.52-.78 43.09-.78zM3158.93 9381.29c0 109.71 19.88 155.75 68.59 155.75 47.98 0 67.86-46.04 67.86-155.75 0-110.41-19.88-155.67-67.86-155.67-48.7 0-68.59 45.26-68.59 155.67zm256.46 0c0 157.03-67.2 244-187.87 244-122.07 0-188.49-86.97-188.49-244 0-157.03 66.42-243.44 188.49-243.44 120.68 0 187.87 86.41 187.87 243.44z"></path><path fill="#2c2a43" fill-rule="nonzero" d="M4940.39 7648.59c-19.07-16.94-48.37-15.28-65.22 4.02-16.94 19.19-15.08 48.29 4.11 65.23 112.57 99.43 230.3 199.95 352.84 301.42 8.63 7.05 19.1 10.58 29.49 10.58 13.22 0 26.46-5.78 35.57-16.83 16.35-19.6 13.61-48.79-6.08-65.14-121.76-100.72-238.83-200.62-350.71-299.28zM5916.75 5552.49c18.91 0 36.74-11.78 43.48-30.57 8.72-23.99-3.72-50.54-27.71-59.17-152.03-55.04-300.06-105.1-440.04-149.08-24.3-7.83-50.34 5.97-57.98 30.27-7.66 24.41 5.86 50.34 30.27 58.09 138.7 43.4 285.54 93.08 436.2 147.64l15.77 2.83zM4274.96 7011.77c-17.63-18.8-47.01-19.19-65.42-1.67-18.44 17.55-19.22 46.81-1.67 65.34 102.27 107.57 212.95 218.06 328.94 328.66 8.91 8.52 20.46 12.72 31.93 12.72 12.16 0 24.38-4.78 33.52-14.3 17.52-18.49 16.94-47.79-1.58-65.42-114.98-109.52-224.61-219.03-325.72-325.33zM6391.75 8786.98c-20.85-14.52-49.76-9.61-64.56 11.16-14.69 20.85-9.69 49.65 11.08 64.45 124.4 87.78 251.66 175.74 381.56 263.32 7.91 5.39 16.94 8.02 25.74 8.02 14.91 0 29.49-7.25 38.4-20.46 14.3-21.07 8.72-49.87-12.44-64.09-129.29-87.47-256.05-174.94-379.78-262.41zM5650.69 8236.93c-20.27-15.85-49.18-11.94-64.95 8.03-15.66 20.1-12.13 49.17 8.05 64.86 119.32 93.16 242.33 186.8 369 280.73 8.33 6.19 17.91 9.22 27.44 9.22 14.19 0 28.21-6.56 37.21-18.72 15.19-20.57 10.97-49.45-9.61-64.76-125.87-93.44-248.41-186.71-367.14-279.37zM4573.63 5182.29c139.51 22.63 290.45 54.29 448.67 94.16l11.35 1.44c20.66 0 39.57-14 44.76-34.96 6.28-24.77-8.72-49.95-33.49-56.12-160.86-40.57-314.47-72.7-456.5-95.83-25.07-4.19-48.87 13.05-53.09 38.21-4.02 25.27 13.13 48.98 38.29 53.09zM13339.05 10773.84c8.11 16.08 24.38 25.38 41.32 25.38l20.88-4.89c22.71-11.66 31.82-39.37 20.35-62.2-62.28-123.23-145.76-257.24-248.11-398.22-14.91-20.85-43.9-25.38-64.56-10.47-20.69 15.08-25.27 43.98-10.3 64.64 99.44 137.15 180.35 266.85 240.41 385.75zM3398.64 5578.65c0-32.82 3.14-64.37 9.19-93.55 5.19-24.99-10.86-49.48-35.85-54.67-25.66-5.19-49.56 10.88-54.76 35.85-7.33 35.38-11.05 73.28-11.05 112.38 0 107.35 27.91 230 82.97 364.39 7.33 17.94 24.57 28.71 42.79 28.71l17.44-3.44c23.71-9.69 35.07-36.74 25.38-60.34-50.54-123.23-76.11-234.03-76.11-329.32zM4121.47 5046.43l-27.83-.19c-176.32 0-325.71 22.16-444.14 65.44-23.99 8.8-36.32 35.46-27.52 59.45 6.86 18.72 24.6 30.38 43.4 30.38l15.97-2.86c108.15-39.76 246.85-59.84 412.29-59.84l26.74.2.5 0c25.27 0 45.96-20.38 46.24-45.65.39-25.57-20.08-46.54-45.65-46.93zM3693.09 6304.11c-14.38-21.35-43.18-27.02-64.25-12.63-21.16 14.22-26.85 42.93-12.64 64.09 78.94 117.74 173.58 243.22 281.54 372.81 9.11 10.96 22.32 16.77 35.54 16.77 10.39 0 20.96-3.53 29.6-10.8 19.57-16.35 22.24-45.43 5.97-65.14-105.91-127.15-198.65-249.96-275.76-365.09zM11714.51 11493.05c-139.5-37.79-287.7-82.47-440.42-132.73-24.3-8.02-50.46 5.31-58.4 29.41-8.02 24.27 5.19 50.43 29.49 58.48 154.31 50.73 304.09 95.8 445.15 134.01l12.13 1.75c20.38 0 39.1-13.52 44.68-34.18 6.67-24.69-7.94-50.07-32.63-56.73zM7547.27 9549.95c-132.34-81.58-262.54-163.97-390.47-246.46-21.35-13.61-49.96-7.64-63.87 13.83-13.91 21.44-7.64 49.95 13.8 63.87 128.34 82.97 259.1 165.55 391.94 247.63l24.19 6.86c15.58 0 30.66-7.74 39.37-22.05 13.52-21.63 6.67-50.23-14.96-63.67zM12613.84 11659.49c-136.26-9.3-288.37-30.07-452.36-61.61-24.69-4.8-49.37 11.35-54.17 36.54-4.89 25.07 11.58 49.37 36.65 54.17 167.69 32.43 323.63 53.67 463.52 63.28l3.25.08c24.07 0 44.46-18.72 46.12-43.09 1.67-25.57-17.52-47.59-43.01-49.37zM13562.58 11188.8c-1.36-25.38-22.44-42.59-48.68-43.68-25.57 1.28-45.07 23.1-43.71 48.68.58 10.69.89 21.16.89 31.54 0 79.25-17.94 149-53.29 207.09-62.78 103.43-182.41 173.38-355.4 207.87-25.07 5.08-41.35 29.38-36.35 54.45 4.41 21.94 23.6 37.24 45.26 37.24l9.11-.89c199.45-39.87 339.51-124.12 416.43-250.57 44.26-72.97 66.7-158.8 66.7-255.18 0-11.94-.28-24.3-.97-36.54zM12565.28 9628.93c-17.94-18.33-47.24-18.41-65.34-.59-18.33 17.83-18.52 47.2-.61 65.34 112.46 114.52 217.78 227.83 312.8 336.88 9.11 10.58 22.02 15.96 34.87 15.96 10.78 0 21.63-3.83 30.35-11.38 19.3-16.83 21.27-46.04 4.5-65.23-96.27-110.6-202.76-225.31-316.58-340.98zM12200.47 9385.29c12.36 0 24.69-5 33.91-14.89 17.33-18.72 16.24-47.9-2.44-65.33-108.93-101.3-225.22-205.43-345.7-309.83-19.3-16.66-48.48-14.61-65.34 4.78-16.66 19.3-14.5 48.51 4.8 65.26 119.71 103.55 235.19 206.98 343.24 307.58 8.91 8.22 20.27 12.44 31.54 12.44zM8342.1 10019.37c-132.54-74.53-265.85-151.53-399.66-230.67-22.05-12.85-50.37-5.69-63.39 16.36-13.02 21.93-5.67 50.34 16.27 63.28 134.39 79.44 268.29 156.64 401.33 231.67l22.63 5.97c16.16 0 31.85-8.41 40.37-23.52 12.52-22.21 4.69-50.43-17.55-63.09zM10839.63 11206.93c-139.59-52.31-283.79-109.32-428.76-169.27-23.41-10.19-50.54 1.28-60.34 24.88-9.8 23.6 1.47 50.73 25.07 60.43 145.78 60.37 291.03 117.76 431.62 170.46l16.16 3.14c18.69 0 36.43-11.58 43.29-30.07 9.02-24.02-3.14-50.65-27.04-59.56zM9155.44 10455.99c-135.09-68.78-271.54-139.89-408.96-213.95-22.63-11.94-50.56-3.41-62.61 18.91-12.13 22.43-3.61 50.54 18.83 62.59 138.11 74.25 275.15 145.98 410.74 214.92l20.96 5.11c16.85 0 33.1-9.33 41.23-25.3 11.55-22.83 2.56-50.62-20.19-62.28zM9987.49 10854.87c-137.34-61.62-276.93-126.37-418.48-194.15-23.21-11.27-50.62-1.39-61.7 21.63-11.08 23.13-1.28 50.76 21.74 61.73 142.22 68.17 282.62 133.23 420.62 195.23l18.91 4c17.55 0 34.49-10.08 42.13-27.32 10.5-23.3.11-50.65-23.22-61.12zM5377.68 11847.98c-147.61 47.29-291.62 89.72-428.26 126.15-23.99 6.39-38.2 30.96-31.85 54.95 5.19 19.41 22.35 32.43 41.35 33.32l13.52-1.47c138.12-36.93 283.68-79.75 432.68-127.54 23.52-7.55 36.54-32.74 28.99-56.34-7.52-23.69-32.79-36.35-56.42-29.07zM4515.27 12075.23c-157.33 30.76-305.14 52.2-439.15 63.87-24.69 2.17-42.9 23.8-40.85 48.59 1.94 22.72 20.46 39.96 42.71 40.93l5.89-.08c137.11-11.94 288.09-33.79 448.64-65.25 24.38-4.69 40.26-28.3 35.46-52.48-4.81-24.49-28.52-40.46-52.7-35.57zM7038.96 11185.97c-137.92 64.14-274.09 125.56-408.1 183.96-22.63 9.89-33.1 36.35-23.1 59.06 7.05 16.16 22.52 26.15 39.18 26.93l19.88-3.72c134.59-58.76 271.43-120.37 410.04-184.93 22.44-10.39 32.24-37.24 21.66-59.56-10.39-22.52-37.04-32.43-59.56-21.74zM6218.18 11542.73c-142.34 57.2-281.73 110.68-417.6 160.16-23.33 8.52-35.27 34.18-26.85 57.51 6.47 17.63 22.63 28.8 40.18 29.57l17.44-2.75c136.73-49.76 277.01-103.63 420.24-161.22 23.02-9.22 34.19-35.37 24.96-58.39-9.3-22.91-35.26-34.1-58.37-24.88zM10997.93 6163.47l14.22-1.67c150.64-42.81 296.11-79.75 432.37-109.43 24.21-5.28 39.59-29.3 34.29-53.48-5.28-24.3-29.18-39.18-53.48-34.29-138.03 30.27-285.26 67.5-437.67 110.79-23.8 6.78-37.71 31.66-30.85 55.34 5.39 19.11 22.33 31.85 41.13 32.74zM7841.53 10788.75c-134.09 70.14-267.32 137.92-399.07 203.06-22.13 11.05-31.24 37.91-20.27 60.15 7.44 15.08 22.44 24.19 38.21 24.96l21.94-4.69c132.23-65.53 265.96-133.51 400.83-203.95 21.96-11.56 30.38-38.6 18.91-60.54-11.44-22.05-38.4-30.57-60.54-18.99zM4439.24 9821.21c-16.55-18.41-44.85-19.69-63.37-3.33-115.29 103.82-225.89 207.67-328.55 308.56-17.63 17.44-17.94 45.84-.5 63.48 8.22 8.44 18.99 12.94 29.99 13.44 11.94.58 24.19-3.72 33.41-12.94 101.77-100.02 211.37-202.98 325.69-305.83 18.44-16.55 19.91-44.95 3.33-63.37zM3256.11 11162.26c-21.85-11.75-49.09-3.72-60.92 17.94-86.91 160.44-139.61 306.61-156.56 434.81-3.22 24.49 14.02 47.12 38.6 50.26l3.91.39c23.02 1.08 43.4-15.66 46.43-38.98 15.5-117.24 64.87-253.02 146.56-403.69 11.85-21.82 3.72-49.06-18.02-60.72zM3637.45 12138.12c-172.57-20.77-303.86-69.17-390.25-144-18.6-16.47-47.04-14.22-63.28 4.5-16.16 18.63-14.22 47.04 4.61 63.2 100.1 86.89 247.52 142.53 438.26 165.36l3.41.39c23.13.97 43.71-16.07 46.46-39.48 3.03-24.69-14.61-47.01-39.21-49.95zM3734.52 10451.96c-107.93 119.51-205.4 236.58-289.65 347.76-14.88 19.77-10.96 47.9 8.72 62.78l24.96 9.11c14.3.69 28.63-5.47 37.93-17.72 82.67-109.13 178.38-224.14 284.65-341.79 16.58-18.41 15.11-46.81-3.22-63.37-18.22-16.66-46.81-15.19-63.39 3.22zM10140.03 9399.98c-120.79 83.97-244.41 167.72-370.67 251.27-20.69 13.72-26.35 41.54-12.74 62.2 8.25 12.44 21.66 19.49 35.46 20.07 9.22.42 18.52-1.94 26.74-7.44 126.87-84.05 251.07-168.19 372.33-252.33 20.38-14.3 25.49-42.23 11.28-62.59-14.11-20.1-42.02-25.19-62.39-11.19zM12326.34 5863.3c-134.29-5.39-287.4 2.56-455 23.43-24.6 3.03-42.04 25.55-38.98 50.15 2.83 22.05 21.05 38.29 42.51 39.26l7.64-.39c162.72-20.27 310.83-27.91 440.23-22.71 24.77.89 45.65-18.33 46.62-43.09 1.08-24.69-20-45.96-43.01-46.65zM12198.02 7685.05c-97.08 103.43-202.98 210.01-314.56 316.58-17.91 17.16-18.6 45.46-1.47 63.48 8.33 8.72 19.3 13.33 30.49 13.83 11.74.58 23.8-3.64 32.99-12.44 112.76-107.65 219.83-215.31 318-319.94 16.94-18.13 16.05-46.54-2.08-63.48-17.83-16.74-46.32-15.96-63.37 1.97zM12810.55 6975.14c-20.96-12.74-48.59-6.47-61.7 14.69-69.67 112.93-156.36 234.11-257.74 360.2-15.58 19.19-12.52 47.59 6.86 62.98 7.75 6.28 16.85 9.61 25.96 10 13.8.58 27.71-5.11 37.12-16.77 103.63-128.9 192.6-253.21 264.18-369.28 13.05-21.16 6.47-48.79-14.69-61.81zM12992.76 6150.92c-46.34-79.06-117.96-143.03-212.76-189.93-22.05-11.08-49.18-1.86-60.17 20.35-10.96 22.16-1.86 49.09 20.38 60.06 78.86 38.98 137.73 91.19 175.05 154.97 36.93 62.89 53.7 138.62 49.76 224.81-2.33 53.68-12.83 112.57-30.93 174.96-6.97 23.69 6.75 48.68 30.55 55.54l10.58 1.86c20.19.89 39.09-12.05 45.07-32.32 20.07-69.17 31.74-135.17 34.37-196.01 4.72-103.85-16.16-196.12-61.89-274.29zM9393.18 9894.58c-124.9 78.86-251.85 157.33-381.14 235.3-21.16 12.83-28.02 40.46-15.19 61.62 8.02 13.41 21.94 21.05 36.43 21.74l25.19-6.47c129.67-78.36 257.32-157.11 382.61-236.36 20.96-13.13 27.24-40.85 14.02-61.81-13.33-20.96-40.85-27.43-61.93-14.02zM11553.84 8303.63c-107.85 94.82-222.56 192.2-341.07 289.28-19.11 15.66-21.96 43.98-6.28 63.28 8.41 10.19 20.46 15.77 32.71 16.36 10.69.39 21.55-2.94 30.46-10.19 119.32-97.85 234.8-195.82 343.46-291.31 18.6-16.46 20.35-44.79 4-63.28-16.44-18.91-44.65-20.69-63.28-4.13zM8626.38 10357.44c-130.67 75.33-260.77 148.58-390.16 219.61-21.77 11.97-29.69 39.29-17.86 60.92 7.86 14.3 22.24 22.63 37.43 23.33l23.52-5.58c129.98-71.42 260.76-144.98 391.91-220.61 21.46-12.33 28.82-39.76 16.46-61.2-12.44-21.46-39.87-29.02-61.31-16.46zM10862.56 8871.51c-115.59 89.24-235 178.96-358.04 268.9-19.99 14.58-24.3 42.71-9.69 62.59 8.3 11.47 21.16 17.83 34.26 18.52 9.8.39 19.88-2.44 28.41-8.72 123.62-90.41 243.72-180.54 359.9-270.18 19.6-15.08 23.21-43.4 8.13-62.89-15.38-19.69-43.4-23.41-62.98-8.22z"></path></svg>